<svg xmlns="http://www.w3.org/2000/svg" width="1200" height="800" viewBox="0 0 1200 800" role="img" aria-label="Placeholder image">
  <defs>
    <linearGradient id="bg" x1="0" y1="0" x2="1" y2="1">
      <stop offset="0" stop-color="#101a2f"/>
      <stop offset="1" stop-color="#0e172a"/>
    </linearGradient>
    <linearGradient id="stroke" x1="0" y1="0" x2="1" y2="1">
      <stop offset="0" stop-color="#78D4FF" stop-opacity=".95"/>
      <stop offset="1" stop-color="#5B8CFF" stop-opacity=".85"/>
    </linearGradient>
  </defs>

  <rect x="24" y="24" width="1152" height="752" rx="48" fill="url(#bg)" stroke="url(#stroke)" stroke-width="6"/>

  <g fill="none" stroke="url(#stroke)" stroke-opacity=".85" stroke-width="10" stroke-linecap="round" stroke-linejoin="round">
    <path d="M260 520h620c40 0 72 32 72 72v40H220v-60c0-30 24-52 40-52Z"/>
    <path d="M380 520v-110c0-30 24-54 54-54h220c30 0 54 24 54 54v110"/>
    <path d="M470 356v-64h160v64"/>
    <path d="M340 632a50 50 0 1 0 0-1"/>
    <path d="M820 632a50 50 0 1 0 0-1"/>
    <path d="M500 455h170"/>
  </g>

  <g fill="#eaf0ff" font-family="system-ui, -apple-system, Segoe UI, Roboto, Ubuntu, Cantarell, Noto Sans, sans-serif" text-anchor="middle">
    <text x="600" y="120" font-size="28" opacity=".92">PLACEHOLDER IMAGE</text>
    <text x="600" y="160" font-size="18" opacity=".72">Branding shot — service van/truck, logo visible, residential neighborhood</text>
  </g>
</svg>
