<svg xmlns="http://www.w3.org/2000/svg" width="1200" height="800" viewBox="0 0 1200 800" role="img" aria-label="Placeholder image">
  <defs>
    <linearGradient id="bg" x1="0" y1="0" x2="1" y2="1">
      <stop offset="0" stop-color="#101a2f"/>
      <stop offset="1" stop-color="#0e172a"/>
    </linearGradient>
    <linearGradient id="stroke" x1="0" y1="0" x2="1" y2="1">
      <stop offset="0" stop-color="#78D4FF" stop-opacity=".95"/>
      <stop offset="1" stop-color="#5B8CFF" stop-opacity=".85"/>
    </linearGradient>
  </defs>

  <rect x="24" y="24" width="1152" height="752" rx="48" fill="url(#bg)" stroke="url(#stroke)" stroke-width="6"/>

  <g fill="none" stroke="url(#stroke)" stroke-opacity=".8" stroke-width="10" stroke-linecap="round" stroke-linejoin="round">
    <path d="M360 520h480"/>
    <path d="M420 520v-90c0-40 32-72 72-72h216c40 0 72 32 72 72v90"/>
    <path d="M520 310v-40c0-35 28-63 63-63h34c35 0 63 28 63 63v40"/>
    <path d="M440 590h320"/>
    <path d="M590 520v140"/>
    <path d="M650 520v140"/>
  </g>

  <g fill="#eaf0ff" font-family="system-ui, -apple-system, Segoe UI, Roboto, Ubuntu, Cantarell, Noto Sans, sans-serif" text-anchor="middle">
    <text x="600" y="120" font-size="28" opacity=".92">PLACEHOLDER IMAGE</text>
    <text x="600" y="160" font-size="18" opacity=".72">Action shot — plumber fixing leak under sink / installing faucet</text>
  </g>
</svg>
